. 
  
http://www.torrenting.com/        :     Greatest Movie Tracker on The Net!!!
 
http://www.Torrenting.com          :     Once & For all ;)


               www . Torrenting . Com 

(((((((((((((= Enjoy No RAR releases =))))))))))))))))))))


...................................NFO:....................................

.                                                                                                     
       
     
     
       
       
     
     
                                         
                                         
                EXVID                    
                                         
         
                                         
         Filled the Archives             
                                         
         
                                         
                With:                    
                                         
         
                                         
                                    
     E240                           
                                    
     SP               (C) 2009      
                                         
     
     
     
                                                                                  
                                                                                   
             Halloween.2007.Theatrical.Cut.DVDRip.XviD-EXViD                        
                                                                                   
                                                                                  
     
                                                                                               
EXViD aims to iNTERNAL those releases which have been lost in the archives.
EXViD aims to PRE non-internal releases which have poor sources and are likely skipped by others.
 
http://www.imdb.com/title/tt0373883/
Subtitles: English, Spanish
Date: 2011.09

Director: Rob Zombie

Genre: Horror

Plot:
Young Michael Myers is committed to Smith's Grove after the brutal murder of his mom and
sister's boyfriends, and his sister Judith. After being there for roughly 17 years, he
returns to his home town of Haddonfield in search of one of the only people he has ever cared
about, his baby sister Laurie Strode. As he is tracked down by Dr. Sam Loomis he will kill
anybody who gets in his path.

Cast:
Malcolm McDowell 	 ... 	 Dr. Samuel Loomis
Scout Taylor-Compton 	 ... 	 Laurie Strode
Tyler Mane 	 ... 	 Michael Myers
Daeg Faerch 	 ... 	 Michael Myers, age 10
Sheri Moon Zombie 	 ... 	 Deborah Myers
William Forsythe 	 ... 	 Ronnie White
Danielle Harris 	 ... 	 Annie Brackett
Kristina Klebe 	 ... 	 Lynda Van Der Klok
Skyler Gisondo 	 ... 	 Tommy Doyle
Danny Trejo 	 ... 	 Ismael Cruz
Hanna Hall 	 ... 	 Judith Myers
Tom Towles 	 ... 	 Larry Redgrave
Bill Moseley 	 ... 	 Zach 'Z-Man' Garrett
Leslie Easterbrook 	 ... 	 Patty Frost
Steve Boyles 	 ... 	 Stan Payne

Stats:
Format                           : AVI
Format/Info                      : Audio Video Interleave
File size                        : 700 MiB
Duration                         : 1h 50mn
Overall bit rate                 : 889 Kbps
Writing application              : Nandub v1.0rc2
Writing library                  : Nandub build 1852/release

Video
ID                               : 0
Format                           : MPEG-4 Visual
Format profile                   : Advanced Simple@L5
Format settings, BVOP            : 2
Format settings, QPel            : No
Format settings, GMC             : No warppoints
Format settings, Matrix          : Default (H.263)
Codec ID                         : XVID
Codec ID/Hint                    : XviD
Duration                         : 1h 50mn
Bit rate                         : 754 Kbps
Width                            : 640 pixels
Height                           : 272 pixels
Display aspect ratio             : 2.35:1
Frame rate                       : 23.976 fps
Color space                      : YUV
Chroma subsampling               : 4:2:0
Bit depth                        : 8 bits
Scan type                        : Progressive
Compression mode                 : Lossy
Bits/(Pixel*Frame)               : 0.181
Stream size                      : 594 MiB (85%)
Writing library                  : XviD 64

Audio
ID                               : 1
Format                           : MPEG Audio
Format version                   : Version 1
Format profile                   : Layer 3
Mode                             : Joint stereo
Mode extension                   : MS Stereo
Codec ID                         : 55
Codec ID/Hint                    : MP3
Duration                         : 1h 50mn
Bit rate mode                    : Variable
Bit rate                         : 128 Kbps
Channel(s)                       : 2 channels
Sampling rate                    : 48.0 KHz
Compression mode                 : Lossy
Stream size                      : 96.4 MiB (14%)
Alignment                        : Aligned on interleaves
Interleave, duration             : 24 ms (0.58 video frame)
Interleave, preload duration     : 144 ms
Writing library                  : LAME3.98r
Encoding settings                : -m j -V 4 -q 3 -lowpass 17 --abr 128




Release notes:
ViTE did the UNRATED, this is the THEATRiCAL cut.

See http://www.movie-censorship.com/report.php?ID=4706 for differences.

enjoy!

Looking for:
75TB+ Archives
DUTCH/FLEMiSH Archives
                                                                                                    
Greets: CRBS EPiSODE FiCO FLS iLS KLASSiGER LiPSYNC MADE NODLABS RUNNER SPRiNTER      
   

                                                                    ASCII DONE BY XX^NFO 2oo9